<svg width="32" height="32" fill="none" xmlns="http://www.w3.org/2000/svg"><path fill-rule="evenodd" clip-rule="evenodd" d="M24.022 16a8.016 8.016 0 0 1-.63 3.114 8.065 8.065 0 0 1-2.901 3.52 8.088 8.088 0 0 1-1.362.736 8.041 8.041 0 0 1-7.598-.737 8.076 8.076 0 0 1-2.901-3.52 7.973 7.973 0 0 1-.468-4.724 7.955 7.955 0 0 1 1.206-2.862 8.077 8.077 0 0 1 2.163-2.16 7.936 7.936 0 0 1 2.867-1.205 8.074 8.074 0 0 1 4.731.466 8.042 8.042 0 0 1 4.263 4.258 7.938 7.938 0 0 1 .63 3.114Zm-10.93-6.18a6.842 6.842 0 0 0-3.776 4.771c.18.002 3.031.038 6.316-.834a41.146 41.146 0 0 0-2.54-3.936Zm3.107 4.99c-3.523 1.053-6.903.977-7.024.972-.002.073-.006.145-.006.218 0 1.755.663 3.355 1.753 4.565-.002-.004 1.87-3.32 5.562-4.513.09-.03.18-.056.27-.082-.172-.388-.36-.777-.555-1.16Zm4.33-3.937a6.814 6.814 0 0 0-4.518-1.704 6.89 6.89 0 0 0-1.612.191c.102.138 1.387 1.84 2.557 3.985 2.582-.966 3.556-2.447 3.573-2.472Zm-3.309 6.23-.045.014c-4.037 1.405-5.355 4.237-5.37 4.268a6.833 6.833 0 0 0 4.206 1.446c.947 0 1.85-.192 2.67-.541-.1-.597-.498-2.69-1.46-5.188Zm2.614 4.563a6.833 6.833 0 0 0 2.931-4.583c-.14-.045-2.055-.65-4.263-.297.898 2.462 1.262 4.468 1.332 4.88Zm-2.351-7.303a21.577 21.577 0 0 1 .602 1.345c2.35-.296 4.666.201 4.765.222a6.79 6.79 0 0 0-1.556-4.27c-.013.018-1.11 1.602-3.811 2.703Z" fill="#647B64"/></svg>