<svg width="64" height="64" fill="none" xmlns="http://www.w3.org/2000/svg"><path d="M52.027 17.12 34.693 6.933a5.32 5.32 0 0 0-5.413 0L11.947 17.12c-1.627.96-2.64 2.72-2.64 4.586v20.56a5.33 5.33 0 0 0 2.64 4.587L29.28 57.04a5.32 5.32 0 0 0 5.413 0l17.334-10.187c1.626-.96 2.64-2.72 2.64-4.587v-20.56c0-1.866-1.014-3.626-2.64-4.586Zm-5.654 24.586-13.333 8c-.32.187-.667.294-1.04.294s-.72-.107-1.04-.294l-13.333-8c-.96-.56-1.254-1.786-.694-2.746s1.787-1.254 2.747-.694l12.293 7.387 9.44-5.68-4.96-2.986-1.733 1.733c-.4.4-.907.587-1.413.587a1.978 1.978 0 0 1-1.414-.587 2.012 2.012 0 0 1 0-2.827l1.014-1.013-4.8-2.88-1.387 1.386c-.4.4-.907.587-1.413.587a1.978 1.978 0 0 1-1.414-.587 2.012 2.012 0 0 1 0-2.826l.694-.694-6.96-4.186a1.978 1.978 0 0 1-.96-1.707c0-.693.373-1.36.96-1.706l13.333-8c.64-.374 1.44-.374 2.053 0l13.334 8c.96.56 1.253 1.786.693 2.746a2.02 2.02 0 0 1-2.747.693L32 18.32 22.56 24l4.96 2.986 1.733-1.733a2.012 2.012 0 0 1 2.827 0 2.012 2.012 0 0 1 0 2.827l-1.013 1.013 4.8 2.88 1.386-1.386a2.012 2.012 0 0 1 2.827 0 2.012 2.012 0 0 1 0 2.826l-.693.694 6.96 4.186c.613.373.96 1.014.96 1.707 0 .693-.347 1.36-.934 1.706Z" fill="#fff"/></svg>