<svg width="54" height="54" fill="none" xmlns="http://www.w3.org/2000/svg"><path d="M35.053.946a52.613 52.613 0 0 0-16.107 0c-2.186.347-3.786 2.214-3.786 4.4v9.814H5.346c-2.186 0-4.053 1.6-4.4 3.787a52.613 52.613 0 0 0 0 16.106c.347 2.187 2.214 3.787 4.4 3.787h4.48a1.32 1.32 0 0 0 1.334-1.334V32.92c0-5.467 4.453-9.92 9.92-9.92h11.84c1.066 0 1.92-.854 1.92-1.92v-8.587a1.32 1.32 0 0 1 1.333-1.333h1.333a1.32 1.32 0 0 0 1.334-1.334v-4.48c0-2.186-1.6-4.053-3.787-4.4ZM22.546 9.88c-1.093 0-2.133-1.04-2.133-2.134 0-1.12 1.04-2.16 2.133-2.16.534 0 1.12.24 1.494.614.4.373.666.986.666 1.546 0 1.094-1.04 2.134-2.16 2.134Z" fill="#647B64"/><path d="M53.053 18.947c-.347-2.187-2.213-3.787-4.4-3.787h-8.48a1.32 1.32 0 0 0-1.333 1.333v4.587c0 3.253-2.64 5.92-5.92 5.92H21.08c-3.28 0-5.92 2.64-5.92 5.92v15.733c0 2.187 1.6 4.053 3.786 4.4a52.617 52.617 0 0 0 16.107 0c2.187-.347 3.787-2.213 3.787-4.4V38.84h9.813c2.187 0 4.053-1.6 4.4-3.787a52.617 52.617 0 0 0 0-16.106Zm-21.6 29.466c-1.093 0-2.16-1.04-2.16-2.16s1.04-2.16 2.16-2.16c.507 0 1.12.24 1.493.587.4.373.667 1.013.667 1.546-.027 1.147-1.067 2.187-2.16 2.187Z" fill="#647B64"/></svg>