<svg width="28" height="28" fill="none" xmlns="http://www.w3.org/2000/svg"><path d="M21.828 11.072a.936.936 0 0 1-.35-.07.887.887 0 0 1-.455-1.155c.222-.502.094-1.237-.315-1.844C20.3 7.385 19.682 6.965 19.122 7a.867.867 0 0 1-.887-.863c0-.49.385-.875.863-.887 1.202-.023 2.334.665 3.069 1.773.746 1.12.921 2.462.466 3.512a.87.87 0 0 1-.805.537Z" fill="#fff"/><path d="M25.457 12.227a.805.805 0 0 1-.233-.035.869.869 0 0 1-.607-1.074c.443-1.586.07-3.476-.992-5.063-1.061-1.587-2.672-2.648-4.317-2.847a.868.868 0 0 1-.758-.968c.058-.478.502-.828.968-.758 2.136.256 4.212 1.61 5.554 3.616 1.341 2.007 1.797 4.434 1.225 6.51a.879.879 0 0 1-.84.619ZM19.973 13.743c0 .35-.291.642-.641.642H4.002a.647.647 0 0 1-.642-.642c0-.35.292-.641.642-.641h.863l.327-1.54c.303-1.494.945-2.859 3.488-2.859h5.985c2.543 0 3.173 1.377 3.488 2.859l.327 1.54h.863c.339 0 .63.291.63.641ZM20.335 18.562c-.129-1.4-.502-2.905-3.232-2.905H6.23c-2.73 0-3.104 1.505-3.232 2.905l-.478 5.191a2.35 2.35 0 0 0 .595 1.785c.455.49 1.085.77 1.773.77h1.598c1.377 0 1.645-.793 1.82-1.306l.175-.514c.199-.583.245-.735 1.015-.735h4.364c.77 0 .793.082 1.015.735l.175.514c.175.525.431 1.306 1.82 1.306h1.598c.677 0 1.319-.28 1.773-.77.444-.49.654-1.131.596-1.785l-.502-5.191ZM9.11 20.335H6.556a.647.647 0 0 1-.641-.642c0-.35.291-.641.641-.641h2.555c.35 0 .642.291.642.641 0 .35-.292.642-.642.642Zm7.665 0h-2.554a.647.647 0 0 1-.642-.642c0-.35.291-.641.642-.641h2.554c.35 0 .642.291.642.641 0 .35-.291.642-.642.642Z" fill="#fff"/></svg>