<svg width="64" height="64" fill="none" xmlns="http://www.w3.org/2000/svg"><path d="M32 5.333C17.28 5.333 5.333 17.28 5.333 32 5.333 46.72 17.28 58.667 32 58.667c14.72 0 26.666-11.947 26.666-26.667C58.666 17.28 46.72 5.333 32 5.333ZM44 38h-8.133l5.306 7.52c.64.907.427 2.16-.48 2.773-.346.24-.747.374-1.147.374a1.93 1.93 0 0 1-1.626-.854l-6.134-8.693-6.133 8.693a2 2 0 0 1-1.627.854c-.4 0-.8-.107-1.146-.374-.907-.64-1.12-1.893-.48-2.773L27.706 38h-7.653c-1.093 0-2-.907-2-2s.907-2 2-2h24c1.093 0 2 .907 2 2s-.96 2-2.053 2Zm0-8H20c-1.093 0-2-.907-2-2s.907-2 2-2h7.653l-5.306-7.52c-.64-.907-.427-2.16.48-2.773.906-.64 2.16-.427 2.773.48l6.133 8.693 6.134-8.693c.64-.907 1.893-1.12 2.773-.48.906.64 1.12 1.893.48 2.773L35.813 26h8.133c1.094 0 2 .907 2 2s-.853 2-1.946 2Z" fill="#647B64"/></svg>