<svg width="32" height="32" fill="none" xmlns="http://www.w3.org/2000/svg"><path fill-rule="evenodd" clip-rule="evenodd" d="m15.769 12.724.035.606-.578-.074c-2.105-.285-3.943-1.248-5.503-2.867l-.763-.804-.197.593c-.416 1.323-.15 2.72.717 3.658.462.52.358.594-.44.285-.277-.1-.52-.173-.543-.136-.08.086.197 1.21.416 1.656.3.618.914 1.223 1.584 1.582l.567.284-.67.012c-.648 0-.671.013-.602.272.231.803 1.145 1.656 2.162 2.027l.717.26-.625.395a6.238 6.238 0 0 1-3.098.914c-.52.012-.948.062-.948.099 0 .124 1.41.816 2.231 1.087 2.463.804 5.388.458 7.584-.914 1.56-.976 3.122-2.916 3.85-4.795.393-1 .786-2.83.786-3.707 0-.569.035-.643.682-1.323.382-.395.74-.827.81-.951.115-.235.104-.235-.486-.025-.983.37-1.122.322-.636-.235.358-.395.786-1.112.786-1.322 0-.037-.173.025-.37.136-.208.124-.67.309-1.017.42l-.624.21-.567-.408c-.312-.222-.751-.47-.983-.543-.59-.173-1.49-.149-2.023.05a3.544 3.544 0 0 0-2.254 3.558Z" fill="#647B64"/></svg>